<svg width="224" height="103" viewBox="0 0 224 103" fill="none" xmlns="http://www.w3.org/2000/svg">
<path d="M79.398 97.552C76.822 97.552 74.3533 97.2147 71.992 96.54C69.6307 95.8347 67.7293 94.93 66.288 93.826L68.818 88.214C70.198 89.1953 71.8233 90.008 73.694 90.652C75.5953 91.2653 77.512 91.572 79.444 91.572C80.916 91.572 82.0967 91.434 82.986 91.158C83.906 90.8513 84.5807 90.4373 85.01 89.916C85.4393 89.3947 85.654 88.7967 85.654 88.122C85.654 87.2633 85.3167 86.5887 84.642 86.098C83.9673 85.5767 83.078 85.1627 81.974 84.856C80.87 84.5187 79.6433 84.212 78.294 83.936C76.9753 83.6293 75.6413 83.2613 74.292 82.832C72.9733 82.4027 71.762 81.8507 70.658 81.176C69.554 80.5013 68.6493 79.612 67.944 78.508C67.2693 77.404 66.932 75.9933 66.932 74.276C66.932 72.436 67.4227 70.7647 68.404 69.262C69.416 67.7287 70.9187 66.5173 72.912 65.628C74.936 64.708 77.466 64.248 80.502 64.248C82.526 64.248 84.5193 64.4933 86.482 64.984C88.4447 65.444 90.1773 66.1493 91.68 67.1L89.38 72.758C87.8773 71.8993 86.3747 71.2707 84.872 70.872C83.3693 70.4427 81.8973 70.228 80.456 70.228C79.0147 70.228 77.834 70.3967 76.914 70.734C75.994 71.0713 75.3347 71.516 74.936 72.068C74.5373 72.5893 74.338 73.2027 74.338 73.908C74.338 74.736 74.6753 75.4107 75.35 75.932C76.0247 76.4227 76.914 76.8213 78.018 77.128C79.122 77.4347 80.3333 77.7413 81.652 78.048C83.0013 78.3547 84.3353 78.7073 85.654 79.106C87.0033 79.5047 88.23 80.0413 89.334 80.716C90.438 81.3907 91.3273 82.28 92.002 83.384C92.7073 84.488 93.06 85.8833 93.06 87.57C93.06 89.3793 92.554 91.0353 91.542 92.538C90.53 94.0407 89.012 95.252 86.988 96.172C84.9947 97.092 82.4647 97.552 79.398 97.552ZM108.088 97.368C106.033 97.368 104.193 96.9693 102.568 96.172C100.973 95.3747 99.7313 94.1633 98.842 92.538C97.9527 90.882 97.508 88.7813 97.508 86.236V72.252H104.684V85.178C104.684 87.2327 105.113 88.7507 105.972 89.732C106.861 90.6827 108.103 91.158 109.698 91.158C110.802 91.158 111.783 90.928 112.642 90.468C113.501 89.9773 114.175 89.2413 114.666 88.26C115.157 87.248 115.402 85.9907 115.402 84.488V72.252H122.578V97H115.77V90.192L117.012 92.17C116.184 93.8873 114.957 95.1907 113.332 96.08C111.737 96.9387 109.989 97.368 108.088 97.368ZM129.226 97V72.252H136.402V97H129.226ZM132.814 68.802C131.495 68.802 130.422 68.4187 129.594 67.652C128.766 66.8853 128.352 65.9347 128.352 64.8C128.352 63.6653 128.766 62.7147 129.594 61.948C130.422 61.1813 131.495 60.798 132.814 60.798C134.133 60.798 135.206 61.166 136.034 61.902C136.862 62.6073 137.276 63.5273 137.276 64.662C137.276 65.858 136.862 66.8547 136.034 67.652C135.237 68.4187 134.163 68.802 132.814 68.802ZM153.182 97.368C150.269 97.368 147.999 96.632 146.374 95.16C144.749 93.6573 143.936 91.434 143.936 88.49V66.778H151.112V88.398C151.112 89.4407 151.388 90.2533 151.94 90.836C152.492 91.388 153.243 91.664 154.194 91.664C155.329 91.664 156.295 91.3573 157.092 90.744L159.024 95.804C158.288 96.3253 157.399 96.724 156.356 97C155.344 97.2453 154.286 97.368 153.182 97.368ZM140.118 78.324V72.804H157.276V78.324H140.118ZM174.571 97.368C171.749 97.368 169.265 96.816 167.119 95.712C165.003 94.608 163.362 93.1053 162.197 91.204C161.031 89.272 160.449 87.0793 160.449 84.626C160.449 82.142 161.016 79.9493 162.151 78.048C163.316 76.116 164.895 74.6133 166.889 73.54C168.882 72.436 171.136 71.884 173.651 71.884C176.073 71.884 178.251 72.4053 180.183 73.448C182.145 74.46 183.694 75.932 184.829 77.864C185.963 79.7653 186.531 82.05 186.531 84.718C186.531 84.994 186.515 85.316 186.485 85.684C186.454 86.0213 186.423 86.3433 186.393 86.65H166.291V82.464H182.621L179.861 83.706C179.861 82.418 179.6 81.2987 179.079 80.348C178.557 79.3973 177.837 78.6613 176.917 78.14C175.997 77.588 174.923 77.312 173.697 77.312C172.47 77.312 171.381 77.588 170.431 78.14C169.511 78.6613 168.79 79.4127 168.269 80.394C167.747 81.3447 167.487 82.4793 167.487 83.798V84.902C167.487 86.2513 167.778 87.4473 168.361 88.49C168.974 89.502 169.817 90.284 170.891 90.836C171.995 91.3573 173.283 91.618 174.755 91.618C176.073 91.618 177.223 91.4187 178.205 91.02C179.217 90.6213 180.137 90.0233 180.965 89.226L184.783 93.366C183.648 94.654 182.222 95.6507 180.505 96.356C178.787 97.0307 176.809 97.368 174.571 97.368ZM199.634 97.368C197.518 97.368 195.479 97.1227 193.516 96.632C191.584 96.1107 190.051 95.4667 188.916 94.7L191.308 89.548C192.443 90.2533 193.777 90.836 195.31 91.296C196.874 91.7253 198.407 91.94 199.91 91.94C201.566 91.94 202.731 91.7407 203.406 91.342C204.111 90.9433 204.464 90.3913 204.464 89.686C204.464 89.1033 204.188 88.674 203.636 88.398C203.115 88.0913 202.409 87.8613 201.52 87.708C200.631 87.5547 199.649 87.4013 198.576 87.248C197.533 87.0947 196.475 86.8953 195.402 86.65C194.329 86.374 193.347 85.9753 192.458 85.454C191.569 84.9327 190.848 84.2273 190.296 83.338C189.775 82.4487 189.514 81.2987 189.514 79.888C189.514 78.324 189.959 76.944 190.848 75.748C191.768 74.552 193.087 73.6167 194.804 72.942C196.521 72.2367 198.576 71.884 200.968 71.884C202.655 71.884 204.372 72.068 206.12 72.436C207.868 72.804 209.325 73.3407 210.49 74.046L208.098 79.152C206.902 78.4467 205.691 77.9713 204.464 77.726C203.268 77.45 202.103 77.312 200.968 77.312C199.373 77.312 198.208 77.5267 197.472 77.956C196.736 78.3853 196.368 78.9373 196.368 79.612C196.368 80.2253 196.629 80.6853 197.15 80.992C197.702 81.2987 198.423 81.544 199.312 81.728C200.201 81.912 201.167 82.0807 202.21 82.234C203.283 82.3567 204.357 82.556 205.43 82.832C206.503 83.108 207.469 83.5067 208.328 84.028C209.217 84.5187 209.938 85.2087 210.49 86.098C211.042 86.9567 211.318 88.0913 211.318 89.502C211.318 91.0353 210.858 92.4 209.938 93.596C209.018 94.7613 207.684 95.6813 205.936 96.356C204.219 97.0307 202.118 97.368 199.634 97.368Z" fill="white"/>
<path d="M9.802 40.762C9.802 44.126 11.2327 45.808 14.094 45.808C17.226 45.808 19.3333 44.7253 20.416 42.56C20.8027 41.7867 20.996 40.8007 20.996 39.602C20.996 38.3647 20.706 37.224 20.126 36.18C19.1593 34.5173 17.4967 32.6807 15.138 30.67C11.2327 27.3447 9.28 23.9033 9.28 20.346C9.28 16.75 10.4013 13.9853 12.644 12.052C14.8867 10.1187 17.458 9.152 20.358 9.152C23.258 9.152 25.5587 9.88666 27.26 11.356C28.9613 12.8253 29.812 15.0293 29.812 17.968C29.812 19.9013 29.1547 21.5833 27.84 23.014C26.564 24.4447 24.8627 25.334 22.736 25.682C23.7027 26.494 24.6693 27.3253 25.636 28.176C26.564 29.0267 27.4147 29.9547 28.188 30.96C29.8893 33.2413 30.74 35.9673 30.74 39.138C30.74 41.342 30.218 43.3333 29.174 45.112C28.1687 46.8907 26.8347 48.3987 25.172 49.636C23.548 50.8347 21.7113 51.7627 19.662 52.42C17.6127 53.0773 15.6987 53.406 13.92 53.406C10.1307 53.406 7.192 52.536 5.104 50.796C2.668 48.824 1.45 45.982 1.45 42.27C1.45 39.834 2.24267 37.4753 3.828 35.194C5.41333 32.9127 7.09533 31.772 8.874 31.772C10.266 31.772 10.962 32.1973 10.962 33.048C10.962 34.2853 10.7687 35.5227 10.382 36.76C9.99533 37.9587 9.802 39.2927 9.802 40.762ZM21.054 24.29C23.258 22.086 24.36 19.7853 24.36 17.388C24.36 16.6533 23.9733 16.0347 23.2 15.532C22.3493 15.068 21.46 14.836 20.532 14.836C18.444 14.836 16.936 15.5127 16.008 16.866C16.472 18.5287 17.1487 19.94 18.038 21.1C18.966 22.26 19.9713 23.3233 21.054 24.29ZM48.3321 46.678C51.3481 46.678 54.2675 45.4793 57.0901 43.082C58.1341 42.1927 58.9848 41.3807 59.6421 40.646C60.2995 39.8727 60.8021 39.486 61.1501 39.486C61.6915 39.486 61.9621 40.0273 61.9621 41.11C61.9621 42.1927 61.6721 43.4107 61.0921 44.764C60.5121 46.0787 59.5455 47.374 58.1921 48.65C54.8668 51.782 50.3041 53.348 44.5041 53.348C39.9028 53.348 36.7708 51.6853 35.1081 48.36C34.5281 47.2 34.2381 45.5373 34.2381 43.372C34.2381 41.2067 34.6635 38.964 35.5141 36.644C36.3648 34.2853 37.4861 32.2553 38.8781 30.554C40.3088 28.8527 41.9521 27.538 43.8081 26.61C45.6641 25.6433 47.6361 25.16 49.7241 25.16C51.8508 25.16 53.4748 25.682 54.5961 26.726C55.7561 27.77 56.3361 29.1233 56.3361 30.786C56.3361 32.4487 55.9108 33.8213 55.0601 34.904C54.2481 35.948 53.1848 36.8373 51.8701 37.572C50.5555 38.268 49.0861 38.906 47.4621 39.486C45.8768 40.0273 44.3108 40.646 42.7641 41.342V42.792C42.8028 44.184 43.3828 45.17 44.5041 45.75C45.6255 46.33 46.9015 46.6393 48.3321 46.678ZM47.3461 30.322C45.3355 30.322 43.9435 32.6613 43.1701 37.34C43.9821 36.7987 44.7361 36.3153 45.4321 35.89C46.1668 35.4647 46.8048 35.0587 47.3461 34.672C48.5061 33.8213 49.1055 32.8547 49.1441 31.772C49.1441 30.8053 48.5448 30.322 47.3461 30.322ZM67.5283 43.256L67.8763 50.332C67.8763 51.26 67.393 52.0913 66.4263 52.826C65.4596 53.5607 64.145 53.928 62.4823 53.928C61.5156 53.928 60.839 53.4253 60.4523 52.42C60.1043 51.4147 59.9303 49.9453 59.9303 48.012C59.9303 43.952 60.1236 40.7813 60.5103 38.5C60.9356 36.18 61.7476 33.8407 62.9463 31.482C61.1676 29.7807 60.2783 28.3113 60.2783 27.074C60.2783 24.4833 61.6703 23.188 64.4543 23.188C65.885 23.188 67.1416 23.942 68.2243 25.45C68.9976 26.494 69.5583 27.712 69.9063 29.104C70.4476 29.2973 71.1243 29.394 71.9363 29.394C73.0576 29.394 74.353 29.0267 75.8223 28.292L77.3303 27.538C77.7943 27.306 78.2003 27.19 78.5483 27.19C79.6696 27.19 80.791 28.8333 81.9123 32.12C81.5643 33.628 81.1776 35.078 80.7523 36.47C80.3656 37.862 79.9016 39.544 79.3603 41.516C78.819 43.488 78.529 44.822 78.4903 45.518C78.4903 46.1753 78.703 46.504 79.1283 46.504C79.7083 46.504 80.4236 46.1367 81.2743 45.402C82.125 44.6673 82.9756 43.8747 83.8263 43.024C84.677 42.1347 85.4503 41.3227 86.1463 40.588C86.881 39.8533 87.3836 39.486 87.6543 39.486C88.1956 39.486 88.4663 40.1433 88.4663 41.458C88.4663 44.126 87.287 46.7553 84.9283 49.346C82.6083 51.9367 79.9403 53.2127 76.9243 53.174C75.1456 53.174 73.8116 52.4587 72.9223 51.028C72.033 49.5973 71.569 47.8573 71.5303 45.808C71.5303 41.748 72.439 37.9007 74.2563 34.266C73.4056 34.614 72.439 34.788 71.3563 34.788C70.3123 34.788 69.5583 34.7493 69.0943 34.672C68.7463 36.1413 68.3983 37.63 68.0503 39.138C67.7023 40.6073 67.5283 41.98 67.5283 43.256ZM99.0821 46.678C102.098 46.678 105.017 45.4793 107.84 43.082C108.884 42.1927 109.735 41.3807 110.392 40.646C111.049 39.8727 111.552 39.486 111.9 39.486C112.441 39.486 112.712 40.0273 112.712 41.11C112.712 42.1927 112.422 43.4107 111.842 44.764C111.262 46.0787 110.295 47.374 108.942 48.65C105.617 51.782 101.054 53.348 95.2541 53.348C90.6528 53.348 87.5208 51.6853 85.8581 48.36C85.2781 47.2 84.9881 45.5373 84.9881 43.372C84.9881 41.2067 85.4135 38.964 86.2641 36.644C87.1148 34.2853 88.2361 32.2553 89.6281 30.554C91.0588 28.8527 92.7021 27.538 94.5581 26.61C96.4141 25.6433 98.3861 25.16 100.474 25.16C102.601 25.16 104.225 25.682 105.346 26.726C106.506 27.77 107.086 29.1233 107.086 30.786C107.086 32.4487 106.661 33.8213 105.81 34.904C104.998 35.948 103.935 36.8373 102.62 37.572C101.305 38.268 99.8361 38.906 98.2121 39.486C96.6268 40.0273 95.0608 40.646 93.5141 41.342V42.792C93.5528 44.184 94.1328 45.17 95.2541 45.75C96.3755 46.33 97.6515 46.6393 99.0821 46.678ZM98.0961 30.322C96.0855 30.322 94.6935 32.6613 93.9201 37.34C94.7321 36.7987 95.4861 36.3153 96.1821 35.89C96.9168 35.4647 97.5548 35.0587 98.0961 34.672C99.2561 33.8213 99.8555 32.8547 99.8941 31.772C99.8941 30.8053 99.2948 30.322 98.0961 30.322ZM117.524 24.058C118.916 24.058 120.231 25.392 121.468 28.06C123.286 26.1653 125.528 25.218 128.196 25.218C130.903 25.218 132.933 25.8173 134.286 27.016C135.64 28.176 136.316 29.8387 136.316 32.004C136.316 34.1307 136.026 36.296 135.446 38.5C134.905 40.704 134.499 42.2893 134.228 43.256C133.996 44.184 133.88 44.9573 133.88 45.576C133.88 46.1947 134.093 46.504 134.518 46.504C135.098 46.504 135.814 46.1367 136.664 45.402C137.515 44.6673 138.366 43.8747 139.216 43.024C140.067 42.1347 140.84 41.3227 141.536 40.588C142.271 39.8533 142.774 39.486 143.044 39.486C143.586 39.486 143.856 40.1433 143.856 41.458C143.856 44.1647 142.522 46.7747 139.854 49.288C135.369 51.9173 132.508 53.232 131.27 53.232C131.154 53.232 131.077 53.2127 131.038 53.174C127.945 53.174 126.398 50.6993 126.398 45.75C126.398 43.6233 126.592 41.6707 126.978 39.892C127.404 38.1133 127.713 36.818 127.906 36.006C128.1 35.194 128.196 34.3627 128.196 33.512C128.196 32.12 127.384 31.424 125.76 31.424C124.175 31.424 122.648 32.6227 121.178 35.02C119.748 37.3787 118.781 39.834 118.278 42.386V42.792C118.278 44.1067 118.472 45.46 118.858 46.852C119.284 48.244 119.496 49.2107 119.496 49.752C119.496 51.0667 117.853 52.362 114.566 53.638C114.064 53.8313 113.619 53.928 113.232 53.928C112.266 53.928 111.589 53.4253 111.202 52.42C110.854 51.4147 110.68 49.8487 110.68 47.722C110.68 42.2313 110.893 38.268 111.318 35.832C111.898 32.1973 113.213 28.814 115.262 25.682C115.958 24.5993 116.712 24.058 117.524 24.058ZM147.923 53.174C144.056 53.174 142.123 49.5587 142.123 42.328C142.123 38.384 142.606 34.8073 143.573 31.598C145.081 26.6487 146.782 24.174 148.677 24.174C149.798 24.174 150.687 24.928 151.345 26.436C151.886 27.596 152.137 28.7367 152.099 29.858C152.099 31.4047 151.635 34.1307 150.707 38.036C149.817 41.4387 149.373 43.546 149.373 44.358C149.373 45.17 149.566 45.7307 149.953 46.04C150.378 46.3493 150.861 46.504 151.403 46.504C151.983 46.504 152.698 46.1367 153.549 45.402C154.399 44.6673 155.25 43.8747 156.101 43.024C156.951 42.1347 157.725 41.3227 158.421 40.588C159.155 39.8533 159.658 39.486 159.929 39.486C160.47 39.486 160.741 40.1433 160.741 41.458C160.741 44.1647 159.368 46.8133 156.623 49.404C153.916 51.956 151.016 53.2127 147.923 53.174ZM150.301 19.476C149.257 17.9293 148.735 16.2667 148.735 14.488C148.735 12.7093 149.005 11.24 149.547 10.08C150.127 8.88133 150.668 8.01133 151.171 7.47C151.673 6.89 152.253 6.6 152.911 6.6C153.993 6.6 154.979 7.412 155.869 9.036C156.758 10.6213 157.203 11.9553 157.203 13.038C157.203 15.0487 156.487 16.634 155.057 17.794C153.665 18.9153 152.079 19.476 150.301 19.476ZM160.394 49.868C159.968 48.824 159.659 47.6253 159.466 46.272C159.272 44.88 159.176 42.9467 159.176 40.472C159.176 37.9973 159.64 34.6527 160.568 30.438H157.958C157.494 30.438 157.262 30.2447 157.262 29.858C157.262 28.93 157.339 28.176 157.494 27.596C157.687 26.9773 158.112 26.2813 158.77 25.508H160.162C160.703 25.508 161.283 25.4887 161.902 25.45C163.758 19.4953 165.652 16.518 167.586 16.518C169.132 16.5567 170.215 17.5427 170.834 19.476C170.988 20.0173 171.162 20.5973 171.356 21.216L168.978 25.392C171.684 25.4693 173.386 25.508 174.082 25.508C174.816 25.508 175.203 25.5853 175.242 25.74C175.319 25.856 175.358 26.0493 175.358 26.32C175.358 27.016 175.184 27.886 174.836 28.93C174.526 29.974 174.159 30.4767 173.734 30.438L167.934 30.148C167.122 34.8653 166.716 38.7707 166.716 41.864C166.716 44.9573 167.16 46.504 168.05 46.504C168.784 46.504 170.118 45.9047 172.052 44.706C173.985 43.4687 175.377 42.2893 176.228 41.168C177.078 40.0467 177.774 39.486 178.316 39.486C178.857 39.486 179.128 40.1433 179.128 41.458C179.128 42.7727 178.664 44.126 177.736 45.518C176.808 46.8713 175.628 48.128 174.198 49.288C172.806 50.4093 171.24 51.3373 169.5 52.072C167.798 52.8067 166.31 53.174 165.034 53.174C163.758 53.174 162.772 52.884 162.076 52.304C161.418 51.6853 160.858 50.8733 160.394 49.868ZM191.852 48.766C189.918 51.434 187.328 52.768 184.08 52.768C181.45 52.768 179.343 52.2267 177.758 51.144C176.211 50.0227 175.438 48.2633 175.438 45.866C175.438 44.8607 175.573 43.9327 175.844 43.082C176.153 42.2313 176.636 41.1873 177.294 39.95L178.976 26.204C180.174 25.276 181.798 24.812 183.848 24.812C185.588 24.812 186.574 25.972 186.806 28.292C186.883 28.988 186.922 29.8193 186.922 30.786C186.922 31.714 186.767 32.7 186.458 33.744C184.911 39.08 184.157 42.6567 184.196 44.474C184.196 45.866 185.008 46.562 186.632 46.562C188.256 46.562 189.454 46.04 190.228 44.996C191.001 43.952 191.658 42.6567 192.2 41.11C193.205 36.818 194.133 33.28 194.984 30.496C195.873 27.712 196.434 26.0493 196.666 25.508C197.052 24.58 197.787 24.0967 198.87 24.058C199.952 24.0967 200.977 24.87 201.944 26.378C202.91 27.8473 203.394 28.988 203.394 29.8C203.316 32.5067 201.634 39.3313 198.348 50.274C200.861 48.302 203.355 45.8853 205.83 43.024C206.68 42.0187 207.396 41.1873 207.976 40.53C208.556 39.834 209.02 39.486 209.368 39.486C209.909 39.486 210.18 40.1047 210.18 41.342C210.18 43.778 208.807 46.62 206.062 49.868C203.355 53.116 200.03 55.6487 196.086 57.466C195.622 59.0127 195.119 60.482 194.578 61.874C194.036 63.266 193.34 64.484 192.49 65.528C190.634 67.7707 187.811 68.892 184.022 68.892C181.47 68.892 179.285 68.1573 177.468 66.688C175.689 65.2187 174.8 63.382 174.8 61.178C174.8 59.9407 175.206 58.9547 176.018 58.22C176.868 57.4853 178.009 56.8667 179.44 56.364C180.909 55.9 182.61 55.4747 184.544 55.088C186.477 54.74 188.546 54.2953 190.75 53.754C191.291 51.434 191.658 49.7713 191.852 48.766ZM183.964 64.426C185.781 64.426 187.424 62.8407 188.894 59.67C187.502 59.9407 186.264 60.134 185.182 60.25C184.099 60.4047 183.171 60.54 182.398 60.656C180.851 60.888 180.097 61.294 180.136 61.874C180.136 62.6087 180.561 63.2273 181.412 63.73C182.301 64.2327 183.152 64.4647 183.964 64.426Z" fill="white"/>
</svg>
