<svg width="101" height="47" viewBox="0 0 101 47" fill="none" xmlns="http://www.w3.org/2000/svg">
<path d="M37.634 42.216C36.626 42.216 35.66 42.084 34.736 41.82C33.812 41.544 33.068 41.19 32.504 40.758L33.494 38.562C34.034 38.946 34.67 39.264 35.402 39.516C36.146 39.756 36.896 39.876 37.652 39.876C38.228 39.876 38.69 39.822 39.038 39.714C39.398 39.594 39.662 39.432 39.83 39.228C39.998 39.024 40.082 38.79 40.082 38.526C40.082 38.19 39.95 37.926 39.686 37.734C39.422 37.53 39.074 37.368 38.642 37.248C38.21 37.116 37.73 36.996 37.202 36.888C36.686 36.768 36.164 36.624 35.636 36.456C35.12 36.288 34.646 36.072 34.214 35.808C33.782 35.544 33.428 35.196 33.152 34.764C32.888 34.332 32.756 33.78 32.756 33.108C32.756 32.388 32.948 31.734 33.332 31.146C33.728 30.546 34.316 30.072 35.096 29.724C35.888 29.364 36.878 29.184 38.066 29.184C38.858 29.184 39.638 29.28 40.406 29.472C41.174 29.652 41.852 29.928 42.44 30.3L41.54 32.514C40.952 32.178 40.364 31.932 39.776 31.776C39.188 31.608 38.612 31.524 38.048 31.524C37.484 31.524 37.022 31.59 36.662 31.722C36.302 31.854 36.044 32.028 35.888 32.244C35.732 32.448 35.654 32.688 35.654 32.964C35.654 33.288 35.786 33.552 36.05 33.756C36.314 33.948 36.662 34.104 37.094 34.224C37.526 34.344 38 34.464 38.516 34.584C39.044 34.704 39.566 34.842 40.082 34.998C40.61 35.154 41.09 35.364 41.522 35.628C41.954 35.892 42.302 36.24 42.566 36.672C42.842 37.104 42.98 37.65 42.98 38.31C42.98 39.018 42.782 39.666 42.386 40.254C41.99 40.842 41.396 41.316 40.604 41.676C39.824 42.036 38.834 42.216 37.634 42.216ZM48.8605 42.144C48.0565 42.144 47.3365 41.988 46.7005 41.676C46.0765 41.364 45.5905 40.89 45.2425 40.254C44.8945 39.606 44.7205 38.784 44.7205 37.788V32.316H47.5285V37.374C47.5285 38.178 47.6965 38.772 48.0325 39.156C48.3805 39.528 48.8665 39.714 49.4905 39.714C49.9225 39.714 50.3065 39.624 50.6425 39.444C50.9785 39.252 51.2425 38.964 51.4345 38.58C51.6265 38.184 51.7225 37.692 51.7225 37.104V32.316H54.5305V42H51.8665V39.336L52.3525 40.11C52.0285 40.782 51.5485 41.292 50.9125 41.64C50.2885 41.976 49.6045 42.144 48.8605 42.144ZM57.1319 42V32.316H59.9399V42H57.1319ZM58.5359 30.966C58.0199 30.966 57.5999 30.816 57.2759 30.516C56.9519 30.216 56.7899 29.844 56.7899 29.4C56.7899 28.956 56.9519 28.584 57.2759 28.284C57.5999 27.984 58.0199 27.834 58.5359 27.834C59.0519 27.834 59.4719 27.978 59.7959 28.266C60.1199 28.542 60.2819 28.902 60.2819 29.346C60.2819 29.814 60.1199 30.204 59.7959 30.516C59.4839 30.816 59.0639 30.966 58.5359 30.966ZM66.506 42.144C65.366 42.144 64.478 41.856 63.842 41.28C63.206 40.692 62.888 39.822 62.888 38.67V30.174H65.696V38.634C65.696 39.042 65.804 39.36 66.02 39.588C66.236 39.804 66.53 39.912 66.902 39.912C67.346 39.912 67.724 39.792 68.036 39.552L68.792 41.532C68.504 41.736 68.156 41.892 67.748 42C67.352 42.096 66.938 42.144 66.506 42.144ZM61.394 34.692V32.532H68.108V34.692H61.394ZM74.8754 42.144C73.7714 42.144 72.7994 41.928 71.9594 41.496C71.1314 41.064 70.4894 40.476 70.0334 39.732C69.5774 38.976 69.3494 38.118 69.3494 37.158C69.3494 36.186 69.5714 35.328 70.0154 34.584C70.4714 33.828 71.0894 33.24 71.8694 32.82C72.6494 32.388 73.5314 32.172 74.5154 32.172C75.4634 32.172 76.3154 32.376 77.0714 32.784C77.8394 33.18 78.4454 33.756 78.8894 34.512C79.3334 35.256 79.5554 36.15 79.5554 37.194C79.5554 37.302 79.5494 37.428 79.5374 37.572C79.5254 37.704 79.5134 37.83 79.5014 37.95H71.6354V36.312H78.0254L76.9454 36.798C76.9454 36.294 76.8434 35.856 76.6394 35.484C76.4354 35.112 76.1534 34.824 75.7934 34.62C75.4334 34.404 75.0134 34.296 74.5334 34.296C74.0534 34.296 73.6274 34.404 73.2554 34.62C72.8954 34.824 72.6134 35.118 72.4094 35.502C72.2054 35.874 72.1034 36.318 72.1034 36.834V37.266C72.1034 37.794 72.2174 38.262 72.4454 38.67C72.6854 39.066 73.0154 39.372 73.4354 39.588C73.8674 39.792 74.3714 39.894 74.9474 39.894C75.4634 39.894 75.9134 39.816 76.2974 39.66C76.6934 39.504 77.0534 39.27 77.3774 38.958L78.8714 40.578C78.4274 41.082 77.8694 41.472 77.1974 41.748C76.5254 42.012 75.7514 42.144 74.8754 42.144ZM84.6829 42.144C83.8549 42.144 83.0569 42.048 82.2889 41.856C81.5329 41.652 80.9329 41.4 80.4889 41.1L81.4249 39.084C81.8689 39.36 82.3909 39.588 82.9909 39.768C83.6029 39.936 84.2029 40.02 84.7909 40.02C85.4389 40.02 85.8949 39.942 86.1589 39.786C86.4349 39.63 86.5729 39.414 86.5729 39.138C86.5729 38.91 86.4649 38.742 86.2489 38.634C86.0449 38.514 85.7689 38.424 85.4209 38.364C85.0729 38.304 84.6889 38.244 84.2689 38.184C83.8609 38.124 83.4469 38.046 83.0269 37.95C82.6069 37.842 82.2229 37.686 81.8749 37.482C81.5269 37.278 81.2449 37.002 81.0289 36.654C80.8249 36.306 80.7229 35.856 80.7229 35.304C80.7229 34.692 80.8969 34.152 81.2449 33.684C81.6049 33.216 82.1209 32.85 82.7929 32.586C83.4649 32.31 84.2689 32.172 85.2049 32.172C85.8649 32.172 86.5369 32.244 87.2209 32.388C87.9049 32.532 88.4749 32.742 88.9309 33.018L87.9949 35.016C87.5269 34.74 87.0529 34.554 86.5729 34.458C86.1049 34.35 85.6489 34.296 85.2049 34.296C84.5809 34.296 84.1249 34.38 83.8369 34.548C83.5489 34.716 83.4049 34.932 83.4049 35.196C83.4049 35.436 83.5069 35.616 83.7109 35.736C83.9269 35.856 84.2089 35.952 84.5569 36.024C84.9049 36.096 85.2829 36.162 85.6909 36.222C86.1109 36.27 86.5309 36.348 86.9509 36.456C87.3709 36.564 87.7489 36.72 88.0849 36.924C88.4329 37.116 88.7149 37.386 88.9309 37.734C89.1469 38.07 89.2549 38.514 89.2549 39.066C89.2549 39.666 89.0749 40.2 88.7149 40.668C88.3549 41.124 87.8329 41.484 87.1489 41.748C86.4769 42.012 85.6549 42.144 84.6829 42.144Z" fill="#1B262C"/>
<path d="M4.056 18.936C4.056 20.328 4.648 21.024 5.832 21.024C7.128 21.024 8 20.576 8.448 19.68C8.608 19.36 8.688 18.952 8.688 18.456C8.688 17.944 8.568 17.472 8.328 17.04C7.928 16.352 7.24 15.592 6.264 14.76C4.648 13.384 3.84 11.96 3.84 10.488C3.84 9 4.304 7.856 5.232 7.056C6.16 6.256 7.224 5.856 8.424 5.856C9.624 5.856 10.576 6.16 11.28 6.768C11.984 7.376 12.336 8.288 12.336 9.504C12.336 10.304 12.064 11 11.52 11.592C10.992 12.184 10.288 12.552 9.408 12.696C9.808 13.032 10.208 13.376 10.608 13.728C10.992 14.08 11.344 14.464 11.664 14.88C12.368 15.824 12.72 16.952 12.72 18.264C12.72 19.176 12.504 20 12.072 20.736C11.656 21.472 11.104 22.096 10.416 22.608C9.744 23.104 8.984 23.488 8.136 23.76C7.288 24.032 6.496 24.168 5.76 24.168C4.192 24.168 2.976 23.808 2.112 23.088C1.104 22.272 0.6 21.096 0.6 19.56C0.6 18.552 0.928 17.576 1.584 16.632C2.24 15.688 2.936 15.216 3.672 15.216C4.248 15.216 4.536 15.392 4.536 15.744C4.536 16.256 4.456 16.768 4.296 17.28C4.136 17.776 4.056 18.328 4.056 18.936ZM8.712 12.12C9.624 11.208 10.08 10.256 10.08 9.264C10.08 8.96 9.92 8.704 9.6 8.496C9.248 8.304 8.88 8.208 8.496 8.208C7.632 8.208 7.008 8.488 6.624 9.048C6.816 9.736 7.096 10.32 7.464 10.8C7.848 11.28 8.264 11.72 8.712 12.12ZM19.9995 21.384C21.2475 21.384 22.4555 20.888 23.6235 19.896C24.0555 19.528 24.4075 19.192 24.6795 18.888C24.9515 18.568 25.1595 18.408 25.3035 18.408C25.5275 18.408 25.6395 18.632 25.6395 19.08C25.6395 19.528 25.5195 20.032 25.2795 20.592C25.0395 21.136 24.6395 21.672 24.0795 22.2C22.7035 23.496 20.8155 24.144 18.4155 24.144C16.5115 24.144 15.2155 23.456 14.5275 22.08C14.2875 21.6 14.1675 20.912 14.1675 20.016C14.1675 19.12 14.3435 18.192 14.6955 17.232C15.0475 16.256 15.5115 15.416 16.0875 14.712C16.6795 14.008 17.3595 13.464 18.1275 13.08C18.8955 12.68 19.7115 12.48 20.5755 12.48C21.4555 12.48 22.1275 12.696 22.5915 13.128C23.0715 13.56 23.3115 14.12 23.3115 14.808C23.3115 15.496 23.1355 16.064 22.7835 16.512C22.4475 16.944 22.0075 17.312 21.4635 17.616C20.9195 17.904 20.3115 18.168 19.6395 18.408C18.9835 18.632 18.3355 18.888 17.6955 19.176V19.776C17.7115 20.352 17.9515 20.76 18.4155 21C18.8795 21.24 19.4075 21.368 19.9995 21.384ZM19.5915 14.616C18.7595 14.616 18.1835 15.584 17.8635 17.52C18.1995 17.296 18.5115 17.096 18.7995 16.92C19.1035 16.744 19.3675 16.576 19.5915 16.416C20.0715 16.064 20.3195 15.664 20.3355 15.216C20.3355 14.816 20.0875 14.616 19.5915 14.616ZM27.9428 19.968L28.0868 22.896C28.0868 23.28 27.8868 23.624 27.4868 23.928C27.0868 24.232 26.5428 24.384 25.8548 24.384C25.4548 24.384 25.1748 24.176 25.0148 23.76C24.8708 23.344 24.7988 22.736 24.7988 21.936C24.7988 20.256 24.8788 18.944 25.0388 18C25.2148 17.04 25.5508 16.072 26.0468 15.096C25.3108 14.392 24.9428 13.784 24.9428 13.272C24.9428 12.2 25.5188 11.664 26.6708 11.664C27.2628 11.664 27.7828 11.976 28.2308 12.6C28.5508 13.032 28.7828 13.536 28.9268 14.112C29.1508 14.192 29.4308 14.232 29.7668 14.232C30.2308 14.232 30.7668 14.08 31.3748 13.776L31.9988 13.464C32.1908 13.368 32.3588 13.32 32.5028 13.32C32.9668 13.32 33.4308 14 33.8948 15.36C33.7508 15.984 33.5908 16.584 33.4148 17.16C33.2548 17.736 33.0628 18.432 32.8388 19.248C32.6148 20.064 32.4948 20.616 32.4788 20.904C32.4788 21.176 32.5668 21.312 32.7428 21.312C32.9828 21.312 33.2788 21.16 33.6308 20.856C33.9828 20.552 34.3348 20.224 34.6868 19.872C35.0388 19.504 35.3588 19.168 35.6468 18.864C35.9508 18.56 36.1588 18.408 36.2708 18.408C36.4948 18.408 36.6068 18.68 36.6068 19.224C36.6068 20.328 36.1188 21.416 35.1428 22.488C34.1828 23.56 33.0788 24.088 31.8308 24.072C31.0948 24.072 30.5428 23.776 30.1748 23.184C29.8068 22.592 29.6148 21.872 29.5988 21.024C29.5988 19.344 29.9748 17.752 30.7268 16.248C30.3748 16.392 29.9748 16.464 29.5268 16.464C29.0948 16.464 28.7828 16.448 28.5908 16.416C28.4468 17.024 28.3028 17.64 28.1588 18.264C28.0148 18.872 27.9428 19.44 27.9428 19.968ZM40.9995 21.384C42.2475 21.384 43.4555 20.888 44.6235 19.896C45.0555 19.528 45.4075 19.192 45.6795 18.888C45.9515 18.568 46.1595 18.408 46.3035 18.408C46.5275 18.408 46.6395 18.632 46.6395 19.08C46.6395 19.528 46.5195 20.032 46.2795 20.592C46.0395 21.136 45.6395 21.672 45.0795 22.2C43.7035 23.496 41.8155 24.144 39.4155 24.144C37.5115 24.144 36.2155 23.456 35.5275 22.08C35.2875 21.6 35.1675 20.912 35.1675 20.016C35.1675 19.12 35.3435 18.192 35.6955 17.232C36.0475 16.256 36.5115 15.416 37.0875 14.712C37.6795 14.008 38.3595 13.464 39.1275 13.08C39.8955 12.68 40.7115 12.48 41.5755 12.48C42.4555 12.48 43.1275 12.696 43.5915 13.128C44.0715 13.56 44.3115 14.12 44.3115 14.808C44.3115 15.496 44.1355 16.064 43.7835 16.512C43.4475 16.944 43.0075 17.312 42.4635 17.616C41.9195 17.904 41.3115 18.168 40.6395 18.408C39.9835 18.632 39.3355 18.888 38.6955 19.176V19.776C38.7115 20.352 38.9515 20.76 39.4155 21C39.8795 21.24 40.4075 21.368 40.9995 21.384ZM40.5915 14.616C39.7595 14.616 39.1835 15.584 38.8635 17.52C39.1995 17.296 39.5115 17.096 39.7995 16.92C40.1035 16.744 40.3675 16.576 40.5915 16.416C41.0715 16.064 41.3195 15.664 41.3355 15.216C41.3355 14.816 41.0875 14.616 40.5915 14.616ZM48.6308 12.024C49.2068 12.024 49.7508 12.576 50.2628 13.68C51.0148 12.896 51.9428 12.504 53.0468 12.504C54.1668 12.504 55.0068 12.752 55.5668 13.248C56.1268 13.728 56.4068 14.416 56.4068 15.312C56.4068 16.192 56.2868 17.088 56.0468 18C55.8228 18.912 55.6548 19.568 55.5428 19.968C55.4468 20.352 55.3988 20.672 55.3988 20.928C55.3988 21.184 55.4868 21.312 55.6628 21.312C55.9028 21.312 56.1988 21.16 56.5508 20.856C56.9028 20.552 57.2548 20.224 57.6068 19.872C57.9588 19.504 58.2788 19.168 58.5668 18.864C58.8708 18.56 59.0788 18.408 59.1908 18.408C59.4148 18.408 59.5268 18.68 59.5268 19.224C59.5268 20.344 58.9748 21.424 57.8708 22.464C56.0148 23.552 54.8308 24.096 54.3188 24.096C54.2708 24.096 54.2388 24.088 54.2228 24.072C52.9428 24.072 52.3028 23.048 52.3028 21C52.3028 20.12 52.3828 19.312 52.5428 18.576C52.7188 17.84 52.8468 17.304 52.9268 16.968C53.0068 16.632 53.0468 16.288 53.0468 15.936C53.0468 15.36 52.7108 15.072 52.0388 15.072C51.3828 15.072 50.7508 15.568 50.1428 16.56C49.5508 17.536 49.1508 18.552 48.9428 19.608V19.776C48.9428 20.32 49.0228 20.88 49.1828 21.456C49.3588 22.032 49.4468 22.432 49.4468 22.656C49.4468 23.2 48.7668 23.736 47.4068 24.264C47.1988 24.344 47.0148 24.384 46.8548 24.384C46.4548 24.384 46.1748 24.176 46.0148 23.76C45.8708 23.344 45.7988 22.696 45.7988 21.816C45.7988 19.544 45.8868 17.904 46.0628 16.896C46.3028 15.392 46.8468 13.992 47.6948 12.696C47.9828 12.248 48.2948 12.024 48.6308 12.024ZM61.2094 24.072C59.6094 24.072 58.8094 22.576 58.8094 19.584C58.8094 17.952 59.0094 16.472 59.4094 15.144C60.0334 13.096 60.7374 12.072 61.5214 12.072C61.9854 12.072 62.3534 12.384 62.6254 13.008C62.8494 13.488 62.9534 13.96 62.9374 14.424C62.9374 15.064 62.7454 16.192 62.3614 17.808C61.9934 19.216 61.8094 20.088 61.8094 20.424C61.8094 20.76 61.8894 20.992 62.0494 21.12C62.2254 21.248 62.4254 21.312 62.6494 21.312C62.8894 21.312 63.1854 21.16 63.5374 20.856C63.8894 20.552 64.2414 20.224 64.5934 19.872C64.9454 19.504 65.2654 19.168 65.5534 18.864C65.8574 18.56 66.0654 18.408 66.1774 18.408C66.4014 18.408 66.5134 18.68 66.5134 19.224C66.5134 20.344 65.9454 21.44 64.8094 22.512C63.6894 23.568 62.4894 24.088 61.2094 24.072ZM62.1934 10.128C61.7614 9.488 61.5454 8.8 61.5454 8.064C61.5454 7.328 61.6574 6.72 61.8814 6.24C62.1214 5.744 62.3454 5.384 62.5534 5.16C62.7614 4.92 63.0014 4.8 63.2734 4.8C63.7214 4.8 64.1294 5.136 64.4974 5.808C64.8654 6.464 65.0494 7.016 65.0494 7.464C65.0494 8.296 64.7534 8.952 64.1614 9.432C63.5854 9.896 62.9294 10.128 62.1934 10.128ZM66.3698 22.704C66.1938 22.272 66.0658 21.776 65.9858 21.216C65.9058 20.64 65.8658 19.84 65.8658 18.816C65.8658 17.792 66.0578 16.408 66.4418 14.664H65.3618C65.1698 14.664 65.0738 14.584 65.0738 14.424C65.0738 14.04 65.1058 13.728 65.1698 13.488C65.2498 13.232 65.4258 12.944 65.6978 12.624H66.2738C66.4978 12.624 66.7378 12.616 66.9938 12.6C67.7618 10.136 68.5458 8.904 69.3458 8.904C69.9858 8.92 70.4338 9.328 70.6898 10.128C70.7538 10.352 70.8258 10.592 70.9058 10.848L69.9218 12.576C71.0418 12.608 71.7458 12.624 72.0338 12.624C72.3378 12.624 72.4978 12.656 72.5138 12.72C72.5458 12.768 72.5618 12.848 72.5618 12.96C72.5618 13.248 72.4898 13.608 72.3458 14.04C72.2178 14.472 72.0658 14.68 71.8898 14.664L69.4898 14.544C69.1538 16.496 68.9858 18.112 68.9858 19.392C68.9858 20.672 69.1698 21.312 69.5378 21.312C69.8418 21.312 70.3938 21.064 71.1938 20.568C71.9938 20.056 72.5698 19.568 72.9218 19.104C73.2738 18.64 73.5618 18.408 73.7858 18.408C74.0098 18.408 74.1218 18.68 74.1218 19.224C74.1218 19.768 73.9298 20.328 73.5458 20.904C73.1618 21.464 72.6738 21.984 72.0818 22.464C71.5058 22.928 70.8578 23.312 70.1378 23.616C69.4338 23.92 68.8178 24.072 68.2898 24.072C67.7618 24.072 67.3538 23.952 67.0658 23.712C66.7938 23.456 66.5618 23.12 66.3698 22.704ZM79.3869 22.248C78.5869 23.352 77.5149 23.904 76.1709 23.904C75.0829 23.904 74.2109 23.68 73.5549 23.232C72.9149 22.768 72.5949 22.04 72.5949 21.048C72.5949 20.632 72.6509 20.248 72.7629 19.896C72.8909 19.544 73.0909 19.112 73.3629 18.6L74.0589 12.912C74.5549 12.528 75.2269 12.336 76.0749 12.336C76.7949 12.336 77.2029 12.816 77.2989 13.776C77.3309 14.064 77.3469 14.408 77.3469 14.808C77.3469 15.192 77.2829 15.6 77.1549 16.032C76.5149 18.24 76.2029 19.72 76.2189 20.472C76.2189 21.048 76.5549 21.336 77.2269 21.336C77.8989 21.336 78.3949 21.12 78.7149 20.688C79.0349 20.256 79.3069 19.72 79.5309 19.08C79.9469 17.304 80.3309 15.84 80.6829 14.688C81.0509 13.536 81.2829 12.848 81.3789 12.624C81.5389 12.24 81.8429 12.04 82.2909 12.024C82.7389 12.04 83.1629 12.36 83.5629 12.984C83.9629 13.592 84.1629 14.064 84.1629 14.4C84.1309 15.52 83.4349 18.344 82.0749 22.872C83.1149 22.056 84.1469 21.056 85.1709 19.872C85.5229 19.456 85.8189 19.112 86.0589 18.84C86.2989 18.552 86.4909 18.408 86.6349 18.408C86.8589 18.408 86.9709 18.664 86.9709 19.176C86.9709 20.184 86.4029 21.36 85.2669 22.704C84.1469 24.048 82.7709 25.096 81.1389 25.848C80.9469 26.488 80.7389 27.096 80.5149 27.672C80.2909 28.248 80.0029 28.752 79.6509 29.184C78.8829 30.112 77.7149 30.576 76.1469 30.576C75.0909 30.576 74.1869 30.272 73.4349 29.664C72.6989 29.056 72.3309 28.296 72.3309 27.384C72.3309 26.872 72.4989 26.464 72.8349 26.16C73.1869 25.856 73.6589 25.6 74.2509 25.392C74.8589 25.2 75.5629 25.024 76.3629 24.864C77.1629 24.72 78.0189 24.536 78.9309 24.312C79.1549 23.352 79.3069 22.664 79.3869 22.248ZM76.1229 28.728C76.8749 28.728 77.5549 28.072 78.1629 26.76C77.5869 26.872 77.0749 26.952 76.6269 27C76.1789 27.064 75.7949 27.12 75.4749 27.168C74.8349 27.264 74.5229 27.432 74.5389 27.672C74.5389 27.976 74.7149 28.232 75.0669 28.44C75.4349 28.648 75.7869 28.744 76.1229 28.728Z" fill="#1B262C"/>
</svg>
