<svg width="101" height="47" viewBox="0 0 101 47" fill="none" xmlns="http://www.w3.org/2000/svg">
<path d="M42.7317 42.216C41.7237 42.216 40.7577 42.084 39.8337 41.82C38.9097 41.544 38.1657 41.19 37.6017 40.758L38.5917 38.562C39.1317 38.946 39.7677 39.264 40.4997 39.516C41.2437 39.756 41.9937 39.876 42.7497 39.876C43.3257 39.876 43.7877 39.822 44.1357 39.714C44.4957 39.594 44.7597 39.432 44.9277 39.228C45.0957 39.024 45.1797 38.79 45.1797 38.526C45.1797 38.19 45.0477 37.926 44.7837 37.734C44.5197 37.53 44.1717 37.368 43.7397 37.248C43.3077 37.116 42.8277 36.996 42.2997 36.888C41.7837 36.768 41.2617 36.624 40.7337 36.456C40.2177 36.288 39.7437 36.072 39.3117 35.808C38.8797 35.544 38.5257 35.196 38.2497 34.764C37.9857 34.332 37.8537 33.78 37.8537 33.108C37.8537 32.388 38.0457 31.734 38.4297 31.146C38.8257 30.546 39.4137 30.072 40.1937 29.724C40.9857 29.364 41.9757 29.184 43.1637 29.184C43.9557 29.184 44.7357 29.28 45.5037 29.472C46.2717 29.652 46.9497 29.928 47.5377 30.3L46.6377 32.514C46.0497 32.178 45.4617 31.932 44.8737 31.776C44.2857 31.608 43.7097 31.524 43.1457 31.524C42.5817 31.524 42.1197 31.59 41.7597 31.722C41.3997 31.854 41.1417 32.028 40.9857 32.244C40.8297 32.448 40.7517 32.688 40.7517 32.964C40.7517 33.288 40.8837 33.552 41.1477 33.756C41.4117 33.948 41.7597 34.104 42.1917 34.224C42.6237 34.344 43.0977 34.464 43.6137 34.584C44.1417 34.704 44.6637 34.842 45.1797 34.998C45.7077 35.154 46.1877 35.364 46.6197 35.628C47.0517 35.892 47.3997 36.24 47.6637 36.672C47.9397 37.104 48.0777 37.65 48.0777 38.31C48.0777 39.018 47.8797 39.666 47.4837 40.254C47.0877 40.842 46.4937 41.316 45.7017 41.676C44.9217 42.036 43.9317 42.216 42.7317 42.216ZM53.9582 42.144C53.1542 42.144 52.4342 41.988 51.7982 41.676C51.1742 41.364 50.6882 40.89 50.3402 40.254C49.9922 39.606 49.8182 38.784 49.8182 37.788V32.316H52.6262V37.374C52.6262 38.178 52.7942 38.772 53.1302 39.156C53.4782 39.528 53.9642 39.714 54.5882 39.714C55.0202 39.714 55.4042 39.624 55.7402 39.444C56.0762 39.252 56.3402 38.964 56.5322 38.58C56.7242 38.184 56.8202 37.692 56.8202 37.104V32.316H59.6282V42H56.9642V39.336L57.4502 40.11C57.1262 40.782 56.6462 41.292 56.0102 41.64C55.3862 41.976 54.7022 42.144 53.9582 42.144ZM62.2296 42V32.316H65.0376V42H62.2296ZM63.6336 30.966C63.1176 30.966 62.6976 30.816 62.3736 30.516C62.0496 30.216 61.8876 29.844 61.8876 29.4C61.8876 28.956 62.0496 28.584 62.3736 28.284C62.6976 27.984 63.1176 27.834 63.6336 27.834C64.1496 27.834 64.5696 27.978 64.8936 28.266C65.2176 28.542 65.3796 28.902 65.3796 29.346C65.3796 29.814 65.2176 30.204 64.8936 30.516C64.5816 30.816 64.1616 30.966 63.6336 30.966ZM71.6037 42.144C70.4637 42.144 69.5757 41.856 68.9397 41.28C68.3037 40.692 67.9857 39.822 67.9857 38.67V30.174H70.7937V38.634C70.7937 39.042 70.9017 39.36 71.1177 39.588C71.3337 39.804 71.6277 39.912 71.9997 39.912C72.4437 39.912 72.8217 39.792 73.1337 39.552L73.8897 41.532C73.6017 41.736 73.2537 41.892 72.8457 42C72.4497 42.096 72.0357 42.144 71.6037 42.144ZM66.4917 34.692V32.532H73.2057V34.692H66.4917ZM79.9731 42.144C78.8691 42.144 77.8971 41.928 77.0571 41.496C76.2291 41.064 75.5871 40.476 75.1311 39.732C74.6751 38.976 74.4471 38.118 74.4471 37.158C74.4471 36.186 74.6691 35.328 75.1131 34.584C75.5691 33.828 76.1871 33.24 76.9671 32.82C77.7471 32.388 78.6291 32.172 79.6131 32.172C80.5611 32.172 81.4131 32.376 82.1691 32.784C82.9371 33.18 83.5431 33.756 83.9871 34.512C84.4311 35.256 84.6531 36.15 84.6531 37.194C84.6531 37.302 84.6471 37.428 84.6351 37.572C84.6231 37.704 84.6111 37.83 84.5991 37.95H76.7331V36.312H83.1231L82.0431 36.798C82.0431 36.294 81.9411 35.856 81.7371 35.484C81.5331 35.112 81.2511 34.824 80.8911 34.62C80.5311 34.404 80.1111 34.296 79.6311 34.296C79.1511 34.296 78.7251 34.404 78.3531 34.62C77.9931 34.824 77.7111 35.118 77.5071 35.502C77.3031 35.874 77.2011 36.318 77.2011 36.834V37.266C77.2011 37.794 77.3151 38.262 77.5431 38.67C77.7831 39.066 78.1131 39.372 78.5331 39.588C78.9651 39.792 79.4691 39.894 80.0451 39.894C80.5611 39.894 81.0111 39.816 81.3951 39.66C81.7911 39.504 82.1511 39.27 82.4751 38.958L83.9691 40.578C83.5251 41.082 82.9671 41.472 82.2951 41.748C81.6231 42.012 80.8491 42.144 79.9731 42.144ZM89.7806 42.144C88.9526 42.144 88.1546 42.048 87.3866 41.856C86.6306 41.652 86.0306 41.4 85.5866 41.1L86.5226 39.084C86.9666 39.36 87.4886 39.588 88.0886 39.768C88.7006 39.936 89.3006 40.02 89.8886 40.02C90.5366 40.02 90.9926 39.942 91.2566 39.786C91.5326 39.63 91.6706 39.414 91.6706 39.138C91.6706 38.91 91.5626 38.742 91.3466 38.634C91.1426 38.514 90.8666 38.424 90.5186 38.364C90.1706 38.304 89.7866 38.244 89.3666 38.184C88.9586 38.124 88.5446 38.046 88.1246 37.95C87.7046 37.842 87.3206 37.686 86.9726 37.482C86.6246 37.278 86.3426 37.002 86.1266 36.654C85.9226 36.306 85.8206 35.856 85.8206 35.304C85.8206 34.692 85.9946 34.152 86.3426 33.684C86.7026 33.216 87.2186 32.85 87.8906 32.586C88.5626 32.31 89.3666 32.172 90.3026 32.172C90.9626 32.172 91.6346 32.244 92.3186 32.388C93.0026 32.532 93.5726 32.742 94.0286 33.018L93.0926 35.016C92.6246 34.74 92.1506 34.554 91.6706 34.458C91.2026 34.35 90.7466 34.296 90.3026 34.296C89.6786 34.296 89.2226 34.38 88.9346 34.548C88.6466 34.716 88.5026 34.932 88.5026 35.196C88.5026 35.436 88.6046 35.616 88.8086 35.736C89.0246 35.856 89.3066 35.952 89.6546 36.024C90.0026 36.096 90.3806 36.162 90.7886 36.222C91.2086 36.27 91.6286 36.348 92.0486 36.456C92.4686 36.564 92.8466 36.72 93.1826 36.924C93.5306 37.116 93.8126 37.386 94.0286 37.734C94.2446 38.07 94.3526 38.514 94.3526 39.066C94.3526 39.666 94.1726 40.2 93.8126 40.668C93.4526 41.124 92.9306 41.484 92.2466 41.748C91.5746 42.012 90.7526 42.144 89.7806 42.144Z" fill="white"/>
<path d="M4.056 18.936C4.056 20.328 4.648 21.024 5.832 21.024C7.128 21.024 8 20.576 8.448 19.68C8.608 19.36 8.688 18.952 8.688 18.456C8.688 17.944 8.568 17.472 8.328 17.04C7.928 16.352 7.24 15.592 6.264 14.76C4.648 13.384 3.84 11.96 3.84 10.488C3.84 9 4.304 7.856 5.232 7.056C6.16 6.256 7.224 5.856 8.424 5.856C9.624 5.856 10.576 6.16 11.28 6.768C11.984 7.376 12.336 8.288 12.336 9.504C12.336 10.304 12.064 11 11.52 11.592C10.992 12.184 10.288 12.552 9.408 12.696C9.808 13.032 10.208 13.376 10.608 13.728C10.992 14.08 11.344 14.464 11.664 14.88C12.368 15.824 12.72 16.952 12.72 18.264C12.72 19.176 12.504 20 12.072 20.736C11.656 21.472 11.104 22.096 10.416 22.608C9.744 23.104 8.984 23.488 8.136 23.76C7.288 24.032 6.496 24.168 5.76 24.168C4.192 24.168 2.976 23.808 2.112 23.088C1.104 22.272 0.6 21.096 0.6 19.56C0.6 18.552 0.928 17.576 1.584 16.632C2.24 15.688 2.936 15.216 3.672 15.216C4.248 15.216 4.536 15.392 4.536 15.744C4.536 16.256 4.456 16.768 4.296 17.28C4.136 17.776 4.056 18.328 4.056 18.936ZM8.712 12.12C9.624 11.208 10.08 10.256 10.08 9.264C10.08 8.96 9.92 8.704 9.6 8.496C9.248 8.304 8.88 8.208 8.496 8.208C7.632 8.208 7.008 8.488 6.624 9.048C6.816 9.736 7.096 10.32 7.464 10.8C7.848 11.28 8.264 11.72 8.712 12.12ZM19.9995 21.384C21.2475 21.384 22.4555 20.888 23.6235 19.896C24.0555 19.528 24.4075 19.192 24.6795 18.888C24.9515 18.568 25.1595 18.408 25.3035 18.408C25.5275 18.408 25.6395 18.632 25.6395 19.08C25.6395 19.528 25.5195 20.032 25.2795 20.592C25.0395 21.136 24.6395 21.672 24.0795 22.2C22.7035 23.496 20.8155 24.144 18.4155 24.144C16.5115 24.144 15.2155 23.456 14.5275 22.08C14.2875 21.6 14.1675 20.912 14.1675 20.016C14.1675 19.12 14.3435 18.192 14.6955 17.232C15.0475 16.256 15.5115 15.416 16.0875 14.712C16.6795 14.008 17.3595 13.464 18.1275 13.08C18.8955 12.68 19.7115 12.48 20.5755 12.48C21.4555 12.48 22.1275 12.696 22.5915 13.128C23.0715 13.56 23.3115 14.12 23.3115 14.808C23.3115 15.496 23.1355 16.064 22.7835 16.512C22.4475 16.944 22.0075 17.312 21.4635 17.616C20.9195 17.904 20.3115 18.168 19.6395 18.408C18.9835 18.632 18.3355 18.888 17.6955 19.176V19.776C17.7115 20.352 17.9515 20.76 18.4155 21C18.8795 21.24 19.4075 21.368 19.9995 21.384ZM19.5915 14.616C18.7595 14.616 18.1835 15.584 17.8635 17.52C18.1995 17.296 18.5115 17.096 18.7995 16.92C19.1035 16.744 19.3675 16.576 19.5915 16.416C20.0715 16.064 20.3195 15.664 20.3355 15.216C20.3355 14.816 20.0875 14.616 19.5915 14.616ZM27.9428 19.968L28.0868 22.896C28.0868 23.28 27.8868 23.624 27.4868 23.928C27.0868 24.232 26.5428 24.384 25.8548 24.384C25.4548 24.384 25.1748 24.176 25.0148 23.76C24.8708 23.344 24.7988 22.736 24.7988 21.936C24.7988 20.256 24.8788 18.944 25.0388 18C25.2148 17.04 25.5508 16.072 26.0468 15.096C25.3108 14.392 24.9428 13.784 24.9428 13.272C24.9428 12.2 25.5188 11.664 26.6708 11.664C27.2628 11.664 27.7828 11.976 28.2308 12.6C28.5508 13.032 28.7828 13.536 28.9268 14.112C29.1508 14.192 29.4308 14.232 29.7668 14.232C30.2308 14.232 30.7668 14.08 31.3748 13.776L31.9988 13.464C32.1908 13.368 32.3588 13.32 32.5028 13.32C32.9668 13.32 33.4308 14 33.8948 15.36C33.7508 15.984 33.5908 16.584 33.4148 17.16C33.2548 17.736 33.0628 18.432 32.8388 19.248C32.6148 20.064 32.4948 20.616 32.4788 20.904C32.4788 21.176 32.5668 21.312 32.7428 21.312C32.9828 21.312 33.2788 21.16 33.6308 20.856C33.9828 20.552 34.3348 20.224 34.6868 19.872C35.0388 19.504 35.3588 19.168 35.6468 18.864C35.9508 18.56 36.1588 18.408 36.2708 18.408C36.4948 18.408 36.6068 18.68 36.6068 19.224C36.6068 20.328 36.1188 21.416 35.1428 22.488C34.1828 23.56 33.0788 24.088 31.8308 24.072C31.0948 24.072 30.5428 23.776 30.1748 23.184C29.8068 22.592 29.6148 21.872 29.5988 21.024C29.5988 19.344 29.9748 17.752 30.7268 16.248C30.3748 16.392 29.9748 16.464 29.5268 16.464C29.0948 16.464 28.7828 16.448 28.5908 16.416C28.4468 17.024 28.3028 17.64 28.1588 18.264C28.0148 18.872 27.9428 19.44 27.9428 19.968ZM40.9995 21.384C42.2475 21.384 43.4555 20.888 44.6235 19.896C45.0555 19.528 45.4075 19.192 45.6795 18.888C45.9515 18.568 46.1595 18.408 46.3035 18.408C46.5275 18.408 46.6395 18.632 46.6395 19.08C46.6395 19.528 46.5195 20.032 46.2795 20.592C46.0395 21.136 45.6395 21.672 45.0795 22.2C43.7035 23.496 41.8155 24.144 39.4155 24.144C37.5115 24.144 36.2155 23.456 35.5275 22.08C35.2875 21.6 35.1675 20.912 35.1675 20.016C35.1675 19.12 35.3435 18.192 35.6955 17.232C36.0475 16.256 36.5115 15.416 37.0875 14.712C37.6795 14.008 38.3595 13.464 39.1275 13.08C39.8955 12.68 40.7115 12.48 41.5755 12.48C42.4555 12.48 43.1275 12.696 43.5915 13.128C44.0715 13.56 44.3115 14.12 44.3115 14.808C44.3115 15.496 44.1355 16.064 43.7835 16.512C43.4475 16.944 43.0075 17.312 42.4635 17.616C41.9195 17.904 41.3115 18.168 40.6395 18.408C39.9835 18.632 39.3355 18.888 38.6955 19.176V19.776C38.7115 20.352 38.9515 20.76 39.4155 21C39.8795 21.24 40.4075 21.368 40.9995 21.384ZM40.5915 14.616C39.7595 14.616 39.1835 15.584 38.8635 17.52C39.1995 17.296 39.5115 17.096 39.7995 16.92C40.1035 16.744 40.3675 16.576 40.5915 16.416C41.0715 16.064 41.3195 15.664 41.3355 15.216C41.3355 14.816 41.0875 14.616 40.5915 14.616ZM48.6308 12.024C49.2068 12.024 49.7508 12.576 50.2628 13.68C51.0148 12.896 51.9428 12.504 53.0468 12.504C54.1668 12.504 55.0068 12.752 55.5668 13.248C56.1268 13.728 56.4068 14.416 56.4068 15.312C56.4068 16.192 56.2868 17.088 56.0468 18C55.8228 18.912 55.6548 19.568 55.5428 19.968C55.4468 20.352 55.3988 20.672 55.3988 20.928C55.3988 21.184 55.4868 21.312 55.6628 21.312C55.9028 21.312 56.1988 21.16 56.5508 20.856C56.9028 20.552 57.2548 20.224 57.6068 19.872C57.9588 19.504 58.2788 19.168 58.5668 18.864C58.8708 18.56 59.0788 18.408 59.1908 18.408C59.4148 18.408 59.5268 18.68 59.5268 19.224C59.5268 20.344 58.9748 21.424 57.8708 22.464C56.0148 23.552 54.8308 24.096 54.3188 24.096C54.2708 24.096 54.2388 24.088 54.2228 24.072C52.9428 24.072 52.3028 23.048 52.3028 21C52.3028 20.12 52.3828 19.312 52.5428 18.576C52.7188 17.84 52.8468 17.304 52.9268 16.968C53.0068 16.632 53.0468 16.288 53.0468 15.936C53.0468 15.36 52.7108 15.072 52.0388 15.072C51.3828 15.072 50.7508 15.568 50.1428 16.56C49.5508 17.536 49.1508 18.552 48.9428 19.608V19.776C48.9428 20.32 49.0228 20.88 49.1828 21.456C49.3588 22.032 49.4468 22.432 49.4468 22.656C49.4468 23.2 48.7668 23.736 47.4068 24.264C47.1988 24.344 47.0148 24.384 46.8548 24.384C46.4548 24.384 46.1748 24.176 46.0148 23.76C45.8708 23.344 45.7988 22.696 45.7988 21.816C45.7988 19.544 45.8868 17.904 46.0628 16.896C46.3028 15.392 46.8468 13.992 47.6948 12.696C47.9828 12.248 48.2948 12.024 48.6308 12.024ZM61.2094 24.072C59.6094 24.072 58.8094 22.576 58.8094 19.584C58.8094 17.952 59.0094 16.472 59.4094 15.144C60.0334 13.096 60.7374 12.072 61.5214 12.072C61.9854 12.072 62.3534 12.384 62.6254 13.008C62.8494 13.488 62.9534 13.96 62.9374 14.424C62.9374 15.064 62.7454 16.192 62.3614 17.808C61.9934 19.216 61.8094 20.088 61.8094 20.424C61.8094 20.76 61.8894 20.992 62.0494 21.12C62.2254 21.248 62.4254 21.312 62.6494 21.312C62.8894 21.312 63.1854 21.16 63.5374 20.856C63.8894 20.552 64.2414 20.224 64.5934 19.872C64.9454 19.504 65.2654 19.168 65.5534 18.864C65.8574 18.56 66.0654 18.408 66.1774 18.408C66.4014 18.408 66.5134 18.68 66.5134 19.224C66.5134 20.344 65.9454 21.44 64.8094 22.512C63.6894 23.568 62.4894 24.088 61.2094 24.072ZM62.1934 10.128C61.7614 9.488 61.5454 8.8 61.5454 8.064C61.5454 7.328 61.6574 6.72 61.8814 6.24C62.1214 5.744 62.3454 5.384 62.5534 5.16C62.7614 4.92 63.0014 4.8 63.2734 4.8C63.7214 4.8 64.1294 5.136 64.4974 5.808C64.8654 6.464 65.0494 7.016 65.0494 7.464C65.0494 8.296 64.7534 8.952 64.1614 9.432C63.5854 9.896 62.9294 10.128 62.1934 10.128ZM66.3698 22.704C66.1938 22.272 66.0658 21.776 65.9858 21.216C65.9058 20.64 65.8658 19.84 65.8658 18.816C65.8658 17.792 66.0578 16.408 66.4418 14.664H65.3618C65.1698 14.664 65.0738 14.584 65.0738 14.424C65.0738 14.04 65.1058 13.728 65.1698 13.488C65.2498 13.232 65.4258 12.944 65.6978 12.624H66.2738C66.4978 12.624 66.7378 12.616 66.9938 12.6C67.7618 10.136 68.5458 8.904 69.3458 8.904C69.9858 8.92 70.4338 9.328 70.6898 10.128C70.7538 10.352 70.8258 10.592 70.9058 10.848L69.9218 12.576C71.0418 12.608 71.7458 12.624 72.0338 12.624C72.3378 12.624 72.4978 12.656 72.5138 12.72C72.5458 12.768 72.5618 12.848 72.5618 12.96C72.5618 13.248 72.4898 13.608 72.3458 14.04C72.2178 14.472 72.0658 14.68 71.8898 14.664L69.4898 14.544C69.1538 16.496 68.9858 18.112 68.9858 19.392C68.9858 20.672 69.1698 21.312 69.5378 21.312C69.8418 21.312 70.3938 21.064 71.1938 20.568C71.9938 20.056 72.5698 19.568 72.9218 19.104C73.2738 18.64 73.5618 18.408 73.7858 18.408C74.0098 18.408 74.1218 18.68 74.1218 19.224C74.1218 19.768 73.9298 20.328 73.5458 20.904C73.1618 21.464 72.6738 21.984 72.0818 22.464C71.5058 22.928 70.8578 23.312 70.1378 23.616C69.4338 23.92 68.8178 24.072 68.2898 24.072C67.7618 24.072 67.3538 23.952 67.0658 23.712C66.7938 23.456 66.5618 23.12 66.3698 22.704ZM79.3869 22.248C78.5869 23.352 77.5149 23.904 76.1709 23.904C75.0829 23.904 74.2109 23.68 73.5549 23.232C72.9149 22.768 72.5949 22.04 72.5949 21.048C72.5949 20.632 72.6509 20.248 72.7629 19.896C72.8909 19.544 73.0909 19.112 73.3629 18.6L74.0589 12.912C74.5549 12.528 75.2269 12.336 76.0749 12.336C76.7949 12.336 77.2029 12.816 77.2989 13.776C77.3309 14.064 77.3469 14.408 77.3469 14.808C77.3469 15.192 77.2829 15.6 77.1549 16.032C76.5149 18.24 76.2029 19.72 76.2189 20.472C76.2189 21.048 76.5549 21.336 77.2269 21.336C77.8989 21.336 78.3949 21.12 78.7149 20.688C79.0349 20.256 79.3069 19.72 79.5309 19.08C79.9469 17.304 80.3309 15.84 80.6829 14.688C81.0509 13.536 81.2829 12.848 81.3789 12.624C81.5389 12.24 81.8429 12.04 82.2909 12.024C82.7389 12.04 83.1629 12.36 83.5629 12.984C83.9629 13.592 84.1629 14.064 84.1629 14.4C84.1309 15.52 83.4349 18.344 82.0749 22.872C83.1149 22.056 84.1469 21.056 85.1709 19.872C85.5229 19.456 85.8189 19.112 86.0589 18.84C86.2989 18.552 86.4909 18.408 86.6349 18.408C86.8589 18.408 86.9709 18.664 86.9709 19.176C86.9709 20.184 86.4029 21.36 85.2669 22.704C84.1469 24.048 82.7709 25.096 81.1389 25.848C80.9469 26.488 80.7389 27.096 80.5149 27.672C80.2909 28.248 80.0029 28.752 79.6509 29.184C78.8829 30.112 77.7149 30.576 76.1469 30.576C75.0909 30.576 74.1869 30.272 73.4349 29.664C72.6989 29.056 72.3309 28.296 72.3309 27.384C72.3309 26.872 72.4989 26.464 72.8349 26.16C73.1869 25.856 73.6589 25.6 74.2509 25.392C74.8589 25.2 75.5629 25.024 76.3629 24.864C77.1629 24.72 78.0189 24.536 78.9309 24.312C79.1549 23.352 79.3069 22.664 79.3869 22.248ZM76.1229 28.728C76.8749 28.728 77.5549 28.072 78.1629 26.76C77.5869 26.872 77.0749 26.952 76.6269 27C76.1789 27.064 75.7949 27.12 75.4749 27.168C74.8349 27.264 74.5229 27.432 74.5389 27.672C74.5389 27.976 74.7149 28.232 75.0669 28.44C75.4349 28.648 75.7869 28.744 76.1229 28.728Z" fill="white"/>
</svg>
